<svg xmlns="http://www.w3.org/2000/svg" width="100" height="100"><path d="M20 23.5v-9.2a2.4 2.4 0 0 1 2.4-2.4h48.4a2.4 2.4 0 0 1 2.4 2.4v9.2" fill="#12b265"/><path d="M22 23.3l.3 60 50 .3c0 1.3-1.1 1.4-2.4 1.4H20.5c-1.3 0-1.4-1.1-1.4-2.4V23.3" fill="#e0e0df"/><rect x="22" y="12.3" width="52.3" height="71.33" rx="2.5" ry="2.5" fill="none" stroke="#4b4b4b" stroke-width="1.13"/><ellipse cx="48.2" cy="17.5" rx="1.7" ry="1.8" fill="none" stroke="#4b4b4b" stroke-width="1.13"/><ellipse cx="33.1" cy="17.5" rx="1.7" ry="1.8" fill="none" stroke="#4b4b4b" stroke-width="1.13"/><ellipse cx="63.3" cy="17.5" rx="1.7" ry="1.8" fill="none" stroke="#4b4b4b" stroke-width="1.13"/><path d="M28.4 31.5h40.8m-40.8 8.2h40.8m-40.8 8.2h40.8m-40.8 8.2h40.8m-40.8 8.2h19.8M19.7 18.1v63.8a3.9 3.9 0 0 0 3.9 3.9h46.1" fill="none" stroke="#4b4b4b" stroke-linecap="round" stroke-width="1.13"/><path d="M77 34.7a2 2 0 0 1 2.8 0l4.7 4.7a2 2 0 0 1 0 2.8L61.3 65.5a7 7 0 0 1-3.4 1.7l-6.7 1 .9-6.8a6.8 6.8 0 0 1 1.7-3.4z" fill="#e0e0df"/><path d="M76.9 31.1a2 2 0 0 1 2.8 0l4.7 4.7a2 2 0 0 1 0 2.8L61.2 61.8a7 7 0 0 1-3.4 1.7l-6.7 1 .9-6.8a6.8 6.8 0 0 1 1.7-3.4z" fill="#fff"/><path d="M71.5 33.7a2 2 0 0 1 2.8 0l4.7 4.7a2 2 0 0 1 0 2.8L58 62.6l-.9-3.2-3.1-.5-.3-3.2-3.2-.6z" fill="#12b265"/><path d="M73.8 31.4l1.9-1.9a.8.8 0 0 1 1.1 0l6.2 6.2a.8.8 0 0 1 0 1.1l-2 2a.8.8 0 0 1-1.1 0l-6.2-6.3a.8.8 0 0 1 .1-1.1z" fill="#e0e0df"/><path d="M76.2 31.4a2 2 0 0 1 2.8 0l4.7 4.7a2 2 0 0 1 0 2.8L60.5 62.2a7 7 0 0 1-3.4 1.7l-6.7 1 .9-6.8a6.8 6.8 0 0 1 1.7-3.5z" fill="none" stroke="#4b4b4b" stroke-width="1.13"/><path d="M81.4 40.4l-6.8-6.8" fill="none" stroke="#4b4b4b" stroke-linecap="square" stroke-width="1.13"/><path fill="none" stroke="#4b4b4b" stroke-width="1.13" d="M52 56.4l2.6.4.5 3.3 3.3.5.3 2.4"/><path d="M74.3 40.7L58.7 56.2" fill="none" stroke="#4b4b4b" stroke-linecap="round" stroke-width="1.13"/><path d="M51.3 62l2.1 2.1-2.7.7z" fill="#4b4b4b"/></svg>