<svg xmlns="http://www.w3.org/2000/svg" width="100" height="100"><path d="M62.6 8.1a15.4 15.4 0 0 0-.3 21.2l.3.3 8.8 8.5a2.7 2.7 0 0 0 3.8 0l8.8-8.5a15.4 15.4 0 0 0 .3-21.2l-.3-.3a15.4 15.4 0 0 0-21.4 0z" fill="#fff"/><circle cx="73.7" cy="18.4" r="7.8" fill="#fff"/><path d="M82.6 9l-.3-.3a15.7 15.7 0 0 0-21.6 0 15.1 15.1 0 0 0-.3 21.1l.3.3 8.9 8.5a2.7 2.7 0 0 0 3.9 0l8.9-8.5A15.1 15.1 0 0 0 82.6 9zm-10 16.6a7.3 7.3 0 1 1 7.4-7.4 7.4 7.4 0 0 1-7.4 7.4z" fill="#12b265"/><path d="M62.7 8.3a15.2 15.2 0 0 0-.3 21.2l.3.3 8.9 8.5c2 2 1.9 2 3.9 0l8.9-8.5a15.2 15.2 0 0 0 .3-21.2l-.3-.3a15.8 15.8 0 0 0-21.7 0z" fill="none" stroke="#4a4a4a" stroke-miterlimit="10" stroke-width="1.13"/><ellipse cx="73.9" cy="18.6" rx="7.9" ry="7.8" fill="none" stroke="#4a4a4a" stroke-miterlimit="10" stroke-width="1.13"/><rect x="11.5" y="10.6" width="43.4" height="76.88" rx="5.9" ry="5.9" fill="#fff"/><path d="M48.7 10.6H17.1a5.9 5.9 0 0 0-5.9 5.9v65a5.9 5.9 0 0 0 5.9 5.9h31.6a5.9 5.9 0 0 0 5.9-5.9v-65a5.9 5.9 0 0 0-5.9-5.9zm1.7 61.8a2.6 2.6 0 0 1-2.6 2.6H14.9a2.6 2.6 0 0 1-2.6-2.6V21.3a2.6 2.6 0 0 1 2.6-2.6h32.9a2.6 2.6 0 0 1 2.6 2.6z" fill="#e0e0df"/><rect x="11.1" y="10.6" width="43.4" height="76.88" rx="5.9" ry="5.9" fill="none" stroke="#4a4a4a" stroke-miterlimit="10" stroke-width="1.13"/><rect x="13.9" y="19.4" width="38" height="56.34" rx="2.6" ry="2.6" fill="none" stroke="#4a4a4a" stroke-miterlimit="10" stroke-width="1.13"/><circle cx="33.1" cy="82" r="3.8" transform="rotate(-89.2 33.05 81.997)" fill="none" stroke="#4a4a4a" stroke-miterlimit="10" stroke-width="1.13"/><path fill="none" stroke="#4a4a4a" stroke-linecap="round" stroke-miterlimit="10" stroke-width="1.13" d="M28.8 14.7h7.4"/><path d="M38.2 51.7l-17 4a1.4 1.4 0 0 0-.3 2.7l5.4 2.6a1.4 1.4 0 0 1 .8.9l1.3 5.3a1.4 1.4 0 0 0 2.6.4l8.7-13.7a1.4 1.4 0 0 0-1.5-2.2z" fill="#12b265"/><path d="M41 52.6l-18.5 4.5a.5.5 0 0 0-.1 1l7.1 3.7a.5.5 0 0 1 .3.4l1 7.2a.5.5 0 0 0 1 .2l9.8-16.2a.5.5 0 0 0-.6-.8z" fill="none" stroke="#4a4a4a" stroke-miterlimit="10" stroke-width="1.13"/><path fill="none" stroke="#4a4a4a" stroke-linecap="round" stroke-miterlimit="10" stroke-width="1.13" stroke-dasharray="3" d="M65.9 36.3l-9.7 6.9M43.3 51.7l7.4-5.2"/></svg>