<svg xmlns="http://www.w3.org/2000/svg" width="100" height="100"><path d="M69.7 17a.4.4 0 0 0-.5-.1l-7.4 4.9-1.5-1.5h-.5L53 28.7a.4.4 0 0 0 0 .5h.5l6.8-4.6 1.6 1.5h.5l7.3-8.6a.4.4 0 0 0 0-.5zM36 26.3h.3l1.6-1.5 6.8 4.6h.5a.4.4 0 0 0 0-.5l-6.8-8.3h-.5L36.3 22l-7.5-4.9a.4.4 0 0 0-.5.5l7.4 8.6zM45.5 17.8l1.9-.4L48.7 29a.4.4 0 0 0 .4.3.4.4 0 0 0 .4-.3l1.2-11.6 1.9.4h.3a.4.4 0 0 0 .1-.4l-3.6-12a.4.4 0 0 0-.4-.3.4.4 0 0 0-.4.3L45 17.3a.4.4 0 0 0 .1.4z" fill="#e0e0df"/><circle cx="50" cy="38.8" r="3.3" fill="#e0e0df"/><path d="M31.2 84.7v1l5 3.4a43.8 43.8 0 0 0 6.5 2.2 22.3 22.3 0 0 0 6.8.6l6-.5a26.7 26.7 0 0 0 5.8-1.4l5.4-2.7 1.6-1.2-1.7-1.3-1-.9a78.7 78.7 0 0 0-10.8-6.5h-.1c4.9-.9 10.7-3.1 11.9-7.1s-1.1-7.5-2.6-9.1l-.6-.7a14.2 14.2 0 0 1-.7-2.4c-.7-3-1.8-7.4-3.8-8.9a7.9 7.9 0 0 0-5.9-1.6h-.1a47.7 47.7 0 0 0-8.2 0 7.4 7.4 0 0 0-5.8 1.5C37 50.6 35.8 55 35 57.9a13.6 13.6 0 0 1-.8 2.5l-.6.7c-1.5 1.5-4.1 4.1-2.7 9s5.6 6.5 12.2 7.5a78.7 78.7 0 0 0-10.8 6.6l-1 .9" fill="#12b265"/><circle cx="50.2" cy="61.7" r="30.3" fill="none" stroke="#4a4a4a" stroke-miterlimit="10" stroke-width="1.13"/><path d="M69.1 86L67 84c-3.1-2.9-7-4.7-10.8-6.6h-.1c4.9-.9 10.7-3.1 11.9-7.2s-1.1-7.5-2.6-9.1l-.6-.7a14.2 14.2 0 0 1-.7-2.4c-.7-3-1.8-7.5-3.8-8.9a8 8 0 0 0-5.9-1.6h-.1l-2.9-.5v-4.3a4 4 0 1 0-2 0v4.2l-3.3.5a7.4 7.4 0 0 0-5.8 1.5c-2 1.5-3.1 5.9-3.9 8.8a13.7 13.7 0 0 1-.8 2.5l-.6.7c-1.5 1.5-4.1 4.2-2.7 9s5.6 6.6 12.2 7.5a79.6 79.6 0 0 0-12.9 8M71 17a.4.4 0 0 0-.5-.1l-7.4 4.9-1.5-1.5H61l-6.7 8.3a.4.4 0 0 0 0 .5h.5l6.8-4.6 1.6 1.5h.5l7.3-8.6a.4.4 0 0 0 0-.4zM37.3 26.3h.3l1.6-1.5 6.8 4.5h.5a.4.4 0 0 0 0-.5l-6.8-8.3h-.5L37.6 22l-7.5-4.9a.4.4 0 0 0-.5.5l7.4 8.6zM46.8 17.8l1.9-.4L50 29a.4.4 0 0 0 .4.3.4.4 0 0 0 .4-.3L52 17.4l1.9.4h.3a.4.4 0 0 0 .1-.4l-3.6-12a.4.4 0 0 0-.4-.3.4.4 0 0 0-.4.3l-3.6 12a.4.4 0 0 0 .1.4z" fill="none" stroke="#4a4a4a" stroke-miterlimit="10" stroke-width="1.13"/></svg>